<svg xmlns="http://www.w3.org/2000/svg" width="241.75" height="50.954" viewBox="0 0 241.75 50.954"><g fill="#E7BA95"><path d="M68.832 36.97h-1.953c-.132 0-.227-.108-.227-.227v-.67c0-.12.095-.227.227-.227h5.151c.132 0 .228.107.228.227v.67c0 .119-.096.227-.228.227h-1.952v7.033c0 .118-.108.227-.227.227h-.791c-.119 0-.227-.108-.227-.227v-7.033zM74.747 36.073c0-.12.096-.227.227-.227h3.258c1.438 0 2.612 1.138 2.612 2.562 0 1.103-.731 2.013-1.773 2.432l1.64 3.043c.084.156 0 .348-.203.348h-.934c-.096 0-.168-.059-.191-.108l-1.593-3.174h-1.809v3.055c0 .118-.108.227-.227.227h-.78c-.131 0-.227-.108-.227-.227v-7.931zm3.39 3.844c.779 0 1.463-.659 1.463-1.485 0-.778-.684-1.426-1.463-1.426h-2.131v2.911h2.131zM83.909 36.073c0-.12.096-.227.228-.227h4.79c.133 0 .228.107.228.227v.67c0 .119-.095.227-.228.227h-3.784v2.444h3.197c.12 0 .228.108.228.228v.67c0 .132-.108.228-.228.228h-3.197v2.574h3.784c.133 0 .228.109.228.227v.661c0 .118-.095.227-.228.227h-4.79c-.132 0-.228-.108-.228-.227v-7.929zM91.034 43.917l3.677-8.06c.036-.072.144-.132.204-.132h.119c.06 0 .168.061.204.132l3.653 8.06c.072.157-.024.313-.204.313h-.754c-.143 0-.228-.072-.275-.18l-.743-1.64h-3.916l-.731 1.64c-.036.084-.132.18-.275.18h-.754c-.181 0-.277-.156-.205-.313zm5.426-2.538l-1.473-3.281h-.06l-1.461 3.281h2.994zM101.992 36.97h-1.952c-.132 0-.228-.108-.228-.227v-.67c0-.12.095-.227.228-.227h5.15c.132 0 .227.107.227.227v.67c0 .119-.096.227-.227.227h-1.953v7.033c0 .118-.108.227-.227.227h-.791c-.12 0-.227-.108-.227-.227v-7.033zM113.381 40.193l-2.803-4c-.095-.156 0-.347.192-.347h.886c.095 0 .156.058.192.107l2.168 3.054 2.168-3.054c.035-.049.107-.107.191-.107h.899c.192 0 .288.191.192.347l-2.84 3.989v3.821c0 .118-.107.227-.227.227h-.791c-.131 0-.227-.108-.227-.227v-3.81zM123.356 35.725c2.395 0 4.313 1.929 4.313 4.325 0 2.394-1.918 4.299-4.313 4.299-2.395 0-4.3-1.904-4.3-4.299 0-2.396 1.906-4.325 4.3-4.325zm0 7.426c1.713 0 3.115-1.39 3.115-3.102 0-1.702-1.402-3.126-3.115-3.126-1.7 0-3.102 1.425-3.102 3.126.001 1.713 1.402 3.102 3.102 3.102zM130.471 36.073c0-.12.107-.227.227-.227h.803c.132 0 .227.107.227.227v4.946c0 1.197.767 2.132 1.988 2.132 1.233 0 2.012-.922 2.012-2.108v-4.97c0-.12.095-.227.227-.227h.802c.12 0 .228.107.228.227v5.03c0 1.821-1.378 3.245-3.27 3.245-1.881 0-3.245-1.424-3.245-3.245v-5.03zM140.397 36.073c0-.12.096-.227.227-.227h3.259c1.436 0 2.61 1.138 2.61 2.562 0 1.103-.729 2.013-1.772 2.432l1.64 3.043c.086.156 0 .348-.202.348h-.935c-.095 0-.168-.059-.191-.108l-1.592-3.174h-1.809v3.055c0 .118-.108.227-.228.227h-.779c-.131 0-.227-.108-.227-.227v-7.931zm3.39 3.844c.779 0 1.46-.659 1.46-1.485 0-.778-.681-1.426-1.46-1.426h-2.132v2.911h2.132zM153.391 36.073c0-.12.108-.227.227-.227h.79c.132 0 .228.107.228.227v3.341h4.384v-3.341c0-.12.096-.227.228-.227h.791c.119 0 .227.107.227.227v7.93c0 .118-.108.227-.227.227h-.791c-.132 0-.228-.108-.228-.227v-3.462h-4.384v3.462c0 .118-.095.227-.228.227h-.79c-.12 0-.227-.108-.227-.227v-7.93zM163.785 36.073c0-.12.097-.227.228-.227h4.791c.132 0 .227.107.227.227v.67c0 .119-.095.227-.227.227h-3.786v2.444h3.199c.12 0 .227.108.227.228v.67c0 .132-.107.228-.227.228h-3.199v2.574h3.786c.132 0 .227.109.227.227v.661c0 .118-.095.227-.227.227h-4.791c-.131 0-.228-.108-.228-.227v-7.929zM170.91 43.917l3.678-8.06c.035-.072.143-.132.203-.132h.12c.061 0 .168.061.203.132l3.654 8.06c.072.157-.025.313-.204.313h-.755c-.143 0-.227-.072-.276-.18l-.741-1.64h-3.917l-.731 1.64c-.036.084-.131.18-.275.18h-.754c-.18 0-.276-.156-.205-.313zm5.426-2.538l-1.473-3.281h-.06l-1.461 3.281h2.994zM181.162 36.073c0-.12.096-.227.216-.227h2.754c2.312 0 4.205 1.88 4.205 4.18 0 2.323-1.893 4.204-4.205 4.204h-2.754c-.12 0-.216-.108-.216-.227v-7.93zm2.803 7.019c1.761 0 3.042-1.293 3.042-3.066 0-1.761-1.281-3.042-3.042-3.042h-1.581v6.108h1.581zM195.089 36.073c0-.12.096-.227.227-.227h3.257c1.438 0 2.612 1.138 2.612 2.562 0 1.103-.731 2.013-1.773 2.432l1.641 3.043c.084.156 0 .348-.202.348h-.935c-.095 0-.168-.059-.191-.108l-1.593-3.174h-1.808v3.055c0 .118-.109.227-.228.227h-.779c-.131 0-.227-.108-.227-.227v-7.931zm3.39 3.844c.779 0 1.462-.659 1.462-1.485 0-.778-.683-1.426-1.462-1.426h-2.133v2.911h2.133zM204.251 36.073c0-.12.107-.227.227-.227h.791c.12 0 .228.107.228.227v7.93c0 .118-.107.227-.228.227h-.791c-.12 0-.227-.108-.227-.227v-7.93zM212.718 35.725c1.15 0 2.095.421 2.91 1.114.096.096.108.24.013.335l-.539.563c-.096.107-.192.096-.311-.012-.563-.491-1.306-.815-2.036-.815-1.7 0-3.005 1.437-3.005 3.115 0 1.664 1.306 3.103 3.005 3.103.995 0 1.677-.36 1.797-.407v-1.343h-1.174c-.132 0-.228-.096-.228-.215v-.695c0-.131.096-.227.228-.227h2.18c.12 0 .216.108.216.227l.011 2.899c0 .059-.048.155-.095.191 0 0-1.234.79-2.97.79-2.384 0-4.312-1.904-4.312-4.299-.002-2.395 1.926-4.324 4.31-4.324zM218.861 36.073c0-.12.108-.227.227-.227h.791c.131 0 .228.107.228.227v3.341h4.382v-3.341c0-.12.096-.227.228-.227h.791c.119 0 .228.107.228.227v7.93c0 .118-.109.227-.228.227h-.791c-.132 0-.228-.108-.228-.227v-3.462h-4.382v3.462c0 .118-.097.227-.228.227h-.791c-.118 0-.227-.108-.227-.227v-7.93zM230.405 36.97h-1.952c-.132 0-.227-.108-.227-.227v-.67c0-.12.094-.227.227-.227h5.15c.133 0 .229.107.229.227v.67c0 .119-.096.227-.229.227h-1.952v7.033c0 .118-.107.227-.227.227h-.791c-.12 0-.229-.108-.229-.227v-7.033z"/></g><g fill="#F47D31"><path d="M241.386 9.555c-.122-.172-.272-.326-.445-.453-.173-.126-.368-.226-.571-.291-.634-.199-1.289-.099-1.834.291-.172.127-.325.281-.446.452-.122.172-.213.36-.274.557-.181.615-.096 1.243.274 1.779.122.172.274.326.446.454.172.126.368.226.572.292.205.067.419.099.633.099.413.001.842-.127 1.2-.391.172-.127.322-.283.444-.454.121-.172.212-.361.273-.56.18-.617.101-1.235-.272-1.775zm-.338 2.166c-.099.143-.22.268-.357.368-.137.102-.289.18-.449.232-.508.156-1.026.08-1.456-.232-.137-.101-.258-.225-.358-.366-.099-.143-.175-.302-.227-.473-.052-.17-.077-.351-.077-.532 0-.346.096-.701.306-.998.1-.142.222-.267.36-.367.137-.101.29-.179.452-.23.505-.153 1.011-.084 1.447.23.137.101.258.226.358.368.099.141.177.301.227.469.155.537.077 1.085-.226 1.531zM240.063 10.861c.149-.022.262-.051.39-.15.306-.296.229-.663.101-.882-.23-.282-.475-.251-.707-.266h-.872v2.32h.347v-1.006h.399l.604 1.006h.389l-.651-1.022zm-.326-.282h-.415v-.719c.286.013.62-.042.823.068.203.12.16.348.111.468-.068.122-.152.151-.294.172l-.225.011zM66.64 10.457c0-.482.391-.879.853-.879.479 0 .872.397.872.879v6.022h8.814v-6.022c0-.482.392-.879.873-.879.46 0 .851.397.851.879v13.74c0 .484-.391.878-.851.878-.48 0-.873-.394-.873-.878v-6.104h-8.814v6.104c0 .484-.393.878-.872.878-.461 0-.853-.394-.853-.878v-13.74zM87.144 24.092v-13.528c0-.482.395-.872.851-.872h9.49c.435 0 .786.346.786.784 0 .436-.351.786-.786.786h-8.618v5.216h7.636c.439 0 .786.367.786.784 0 .433-.347.784-.786.784h-7.636v5.345h8.728c.436 0 .786.351.786.788 0 .438-.35.785-.786.785h-9.601c-.455.001-.85-.389-.85-.872zM104.746 23.829l6.197-13.55c.217-.475.547-.76 1.092-.76h.087c.524 0 .873.284 1.068.76l6.197 13.531c.065.155.11.304.11.434 0 .458-.372.831-.831.831-.413 0-.697-.285-.85-.633l-1.592-3.515h-8.378l-1.596 3.555c-.152.372-.436.593-.83.593-.434 0-.784-.352-.784-.789.002-.128.024-.28.11-.457zm10.801-4.472l-3.512-7.813-3.513 7.813h7.025zM126.715 10.564c0-.482.391-.872.849-.872h4.452c4.799 0 8.117 3.296 8.117 7.591v.042c0 4.304-3.318 7.64-8.117 7.64h-4.452c-.459 0-.849-.39-.849-.873v-13.528zm5.302 12.811c3.861 0 6.327-2.624 6.327-6.004v-.046c0-3.38-2.466-6.042-6.327-6.042h-3.578v12.092h3.578zM146.933 23.131c-.198-.131-.325-.368-.325-.656 0-.477.37-.846.829-.846.22 0 .414.084.523.191 1.439 1.226 2.88 1.816 4.823 1.816 2.05 0 3.404-1.093 3.404-2.598v-.044c0-1.416-.763-2.222-3.971-2.899-3.512-.769-5.128-1.899-5.128-4.41v-.043c0-2.4 2.117-4.169 5.017-4.169 2.01 0 3.47.504 4.866 1.508.175.129.371.37.371.697 0 .459-.371.828-.829.828-.197 0-.349-.042-.502-.155-1.286-.935-2.531-1.328-3.948-1.328-1.987 0-3.253 1.093-3.253 2.462v.047c0 1.44.788 2.249 4.146 2.965 3.406.745 4.976 1.99 4.976 4.323v.044c0 2.62-2.182 4.321-5.214 4.321-2.226-.002-4.082-.703-5.785-2.054zM165.367 10.564c0-.482.392-.872.851-.872h4.864c3.449 0 5.717 1.83 5.717 4.841v.043c0 3.297-2.75 5-5.999 5h-3.71v4.621c0 .484-.394.878-.873.878-.459 0-.851-.394-.851-.878v-13.633zm5.498 7.441c2.532 0 4.19-1.355 4.19-3.362v-.043c0-2.183-1.635-3.317-4.102-3.317h-3.862v6.722h3.774zM181.51 23.829l6.196-13.55c.219-.475.546-.76 1.091-.76h.09c.523 0 .87.284 1.067.76l6.196 13.531c.066.155.108.304.108.434 0 .458-.37.831-.828.831-.414 0-.698-.285-.85-.633l-1.594-3.515h-8.379l-1.591 3.555c-.153.372-.437.593-.83.593-.436 0-.784-.352-.784-.789-.001-.128.02-.28.108-.457zm10.798-4.472l-3.512-7.813-3.513 7.813h7.025zM202.013 17.371v-.046c0-4.318 3.23-7.895 7.725-7.895 2.465 0 4.036.805 5.454 1.985.175.151.348.391.348.7 0 .457-.416.852-.872.852-.24 0-.437-.114-.568-.199-1.177-1.05-2.508-1.746-4.386-1.746-3.382 0-5.912 2.749-5.912 6.261v.042c0 3.538 2.553 6.311 5.912 6.311 1.899 0 3.231-.653 4.538-1.857.131-.131.329-.241.548-.241.434 0 .826.393.826.829 0 .265-.129.484-.281.616-1.506 1.371-3.165 2.244-5.673 2.244-4.407 0-7.659-3.47-7.659-7.856zM222.715 24.092v-13.528c0-.482.392-.872.851-.872h9.489c.436 0 .784.346.784.784 0 .436-.348.786-.784.786h-8.617v5.216h7.636c.436 0 .786.367.786.784 0 .433-.35.784-.786.784h-7.636v5.345h8.728c.437 0 .785.351.785.788 0 .438-.348.785-.785.785h-9.6c-.459.001-.851-.389-.851-.872zM51.47 25.179c.598 8.347-3.278 13.083-5.616 16.396-3.638 3.834-8.244 9.062-19.949 9.354-9.929.391-14.813-3.976-18.903-7.768-5.34-5.868-6.734-9.343-7.002-17.982-.025-5.296 2.015-10.585 5.588-15.235 5.01-7.069 12.965-9.435 20.317-9.927 7.713-.299 13.848 3.591 18.039 7.781 5.359 5.652 7.005 10.505 7.526 17.381"/></g></svg>